<svg id="visual" viewBox="0 0 3840 2160" width="3840" height="2160" xmlns="http://www.w3.org/2000/svg" xmlns:xlink="http://www.w3.org/1999/xlink" version="1.1"><g stroke-width="1" stroke-linejoin="bevel"><path d="M2035.9 1077L2088.9 1259L2182.8 1142Z" fill="#6619fe" stroke="#001122"></path><path d="M2088.9 1259L2205.8 1225L2182.8 1142Z" fill="#6626fd" stroke="#001122"></path><path d="M2035.9 1077L1839.1 1171L2088.9 1259Z" fill="#6839fb" stroke="#001122"></path><path d="M1839.1 1171L1833.1 1209L2088.9 1259Z" fill="#715df2" stroke="#001122"></path><path d="M2163.8 776L1968.9 915L2035.9 1077Z" fill="#6f58f4" stroke="#001122"></path><path d="M2035.9 1077L1968.9 915L1839.1 1171Z" fill="#6a47f9" stroke="#001122"></path><path d="M1833.1 1209L1839.1 1464L2088.9 1259Z" fill="#6626fd" stroke="#001122"></path><path d="M2088.9 1259L2166.8 1610L2205.8 1225Z" fill="#6940fa" stroke="#001122"></path><path d="M2478.7 1036L2163.8 776L2182.8 1142Z" fill="#6626fd" stroke="#001122"></path><path d="M2182.8 1142L2163.8 776L2035.9 1077Z" fill="#6d52f6" stroke="#001122"></path><path d="M1839.1 1464L2058.9 1566L2088.9 1259Z" fill="#6d52f6" stroke="#001122"></path><path d="M2569.7 1320L2478.7 1036L2205.8 1225Z" fill="#6730fc" stroke="#001122"></path><path d="M2205.8 1225L2478.7 1036L2182.8 1142Z" fill="#6c4df7" stroke="#001122"></path><path d="M2166.8 1610L2417.7 1421L2205.8 1225Z" fill="#6d52f6" stroke="#001122"></path><path d="M2163.8 776L2045.9 741L1968.9 915Z" fill="#6730fc" stroke="#001122"></path><path d="M1968.9 915L1732.1 777L1839.1 1171Z" fill="#715df2" stroke="#001122"></path><path d="M2058.9 1566L2166.8 1610L2088.9 1259Z" fill="#6a47f9" stroke="#001122"></path><path d="M2621.6 1497L2569.7 1320L2417.7 1421Z" fill="#6f58f4" stroke="#001122"></path><path d="M2417.7 1421L2569.7 1320L2205.8 1225Z" fill="#6600ff" stroke="#001122"></path><path d="M1806.1 645L1732.1 777L1968.9 915Z" fill="#6f58f4" stroke="#001122"></path><path d="M1839.1 1171L1529.2 1009L1833.1 1209Z" fill="#6c4df7" stroke="#001122"></path><path d="M1833.1 1209L1508.2 1338L1839.1 1464Z" fill="#6c4df7" stroke="#001122"></path><path d="M2565.7 706L2167.8 616L2163.8 776Z" fill="#6626fd" stroke="#001122"></path><path d="M2163.8 776L2167.8 616L2045.9 741Z" fill="#6d52f6" stroke="#001122"></path><path d="M2045.9 741L1806.1 645L1968.9 915Z" fill="#715df2" stroke="#001122"></path><path d="M1766.1 1647L2025.9 1724L2058.9 1566Z" fill="#6626fd" stroke="#001122"></path><path d="M2058.9 1566L2025.9 1724L2166.8 1610Z" fill="#6626fd" stroke="#001122"></path><path d="M2166.8 1610L2478.7 1643L2417.7 1421Z" fill="#6839fb" stroke="#001122"></path><path d="M1732.1 777L1567.2 935L1839.1 1171Z" fill="#6626fd" stroke="#001122"></path><path d="M1567.2 935L1529.2 1009L1839.1 1171Z" fill="#715df2" stroke="#001122"></path><path d="M1499.2 1590L1766.1 1647L1839.1 1464Z" fill="#6730fc" stroke="#001122"></path><path d="M1839.1 1464L1766.1 1647L2058.9 1566Z" fill="#6940fa" stroke="#001122"></path><path d="M2747.6 1038L2619.6 926L2478.7 1036Z" fill="#6730fc" stroke="#001122"></path><path d="M2478.7 1036L2577.7 772L2163.8 776Z" fill="#6730fc" stroke="#001122"></path><path d="M2025.9 1724L2252.8 1722L2166.8 1610Z" fill="#6839fb" stroke="#001122"></path><path d="M2051.9 522L1806.1 645L2045.9 741Z" fill="#6c4df7" stroke="#001122"></path><path d="M1732.1 777L1636.2 597L1567.2 935Z" fill="#6f58f4" stroke="#001122"></path><path d="M1529.2 1009L1508.2 1338L1833.1 1209Z" fill="#6600ff" stroke="#001122"></path><path d="M2252.8 1722L2478.7 1643L2166.8 1610Z" fill="#6c4df7" stroke="#001122"></path><path d="M2619.6 926L2577.7 772L2478.7 1036Z" fill="#6f58f4" stroke="#001122"></path><path d="M2478.7 1643L2621.6 1497L2417.7 1421Z" fill="#6d52f6" stroke="#001122"></path><path d="M2569.7 1320L2747.6 1038L2478.7 1036Z" fill="#6c4df7" stroke="#001122"></path><path d="M2169.8 392L2051.9 522L2167.8 616Z" fill="#6940fa" stroke="#001122"></path><path d="M2167.8 616L2051.9 522L2045.9 741Z" fill="#6619fe" stroke="#001122"></path><path d="M2697.6 700L2565.7 706L2577.7 772Z" fill="#6d52f6" stroke="#001122"></path><path d="M2577.7 772L2565.7 706L2163.8 776Z" fill="#6f58f4" stroke="#001122"></path><path d="M2747.6 1381L2747.6 1038L2569.7 1320Z" fill="#6d52f6" stroke="#001122"></path><path d="M2619.6 926L2697.6 700L2577.7 772Z" fill="#6839fb" stroke="#001122"></path><path d="M2868.5 1630L2747.6 1381L2621.6 1497Z" fill="#6a47f9" stroke="#001122"></path><path d="M2621.6 1497L2747.6 1381L2569.7 1320Z" fill="#6619fe" stroke="#001122"></path><path d="M1756.1 367L1636.2 597L1806.1 645Z" fill="#6730fc" stroke="#001122"></path><path d="M1806.1 645L1636.2 597L1732.1 777Z" fill="#715df2" stroke="#001122"></path><path d="M1273.3 881L1351.3 1107L1529.2 1009Z" fill="#6619fe" stroke="#001122"></path><path d="M2025.9 1724L2179.8 1880L2252.8 1722Z" fill="#6a47f9" stroke="#001122"></path><path d="M2252.8 1722L2543.7 1930L2478.7 1643Z" fill="#6c4df7" stroke="#001122"></path><path d="M1950.9 2034L2179.8 1880L2025.9 1724Z" fill="#6600ff" stroke="#001122"></path><path d="M1508.2 1338L1499.2 1590L1839.1 1464Z" fill="#6619fe" stroke="#001122"></path><path d="M1766.1 1647L1880.1 2032L2025.9 1724Z" fill="#6839fb" stroke="#001122"></path><path d="M1273.3 881L1529.2 1009L1567.2 935Z" fill="#6940fa" stroke="#001122"></path><path d="M1529.2 1009L1351.3 1107L1508.2 1338Z" fill="#6d52f6" stroke="#001122"></path><path d="M1508.2 1338L1300.3 1531L1499.2 1590Z" fill="#6f58f4" stroke="#001122"></path><path d="M1351.3 1107L1356.3 1280L1508.2 1338Z" fill="#715df2" stroke="#001122"></path><path d="M2747.6 1381L2845.5 1086L2747.6 1038Z" fill="#6c4df7" stroke="#001122"></path><path d="M2923.5 834L2697.6 700L2619.6 926Z" fill="#6f58f4" stroke="#001122"></path><path d="M2923.5 834L2619.6 926L2747.6 1038Z" fill="#6940fa" stroke="#001122"></path><path d="M2503.7 465L2169.8 392L2167.8 616Z" fill="#6d52f6" stroke="#001122"></path><path d="M2503.7 465L2167.8 616L2565.7 706Z" fill="#6839fb" stroke="#001122"></path><path d="M2051.9 522L1756.1 367L1806.1 645Z" fill="#6839fb" stroke="#001122"></path><path d="M2697.6 700L2503.7 465L2565.7 706Z" fill="#6730fc" stroke="#001122"></path><path d="M1485.2 1769L1641.2 1873L1766.1 1647Z" fill="#6619fe" stroke="#001122"></path><path d="M1304.3 1770L1485.2 1769L1499.2 1590Z" fill="#6619fe" stroke="#001122"></path><path d="M1499.2 1590L1485.2 1769L1766.1 1647Z" fill="#6a47f9" stroke="#001122"></path><path d="M2543.7 1930L2752.6 1704L2478.7 1643Z" fill="#6f58f4" stroke="#001122"></path><path d="M2478.7 1643L2752.6 1704L2621.6 1497Z" fill="#6730fc" stroke="#001122"></path><path d="M2747.6 1381L3011.5 1285L2845.5 1086Z" fill="#6839fb" stroke="#001122"></path><path d="M1956.9 183L1756.1 367L2051.9 522Z" fill="#6839fb" stroke="#001122"></path><path d="M1265.3 652L1273.3 881L1567.2 935Z" fill="#6619fe" stroke="#001122"></path><path d="M1265.3 652L1567.2 935L1636.2 597Z" fill="#6730fc" stroke="#001122"></path><path d="M1351.3 1107L1195.4 1026L1356.3 1280Z" fill="#6d52f6" stroke="#001122"></path><path d="M1356.3 1280L1300.3 1531L1508.2 1338Z" fill="#6d52f6" stroke="#001122"></path><path d="M1138.4 1442L1300.3 1531L1356.3 1280Z" fill="#6839fb" stroke="#001122"></path><path d="M1880.1 2032L1950.9 2034L2025.9 1724Z" fill="#715df2" stroke="#001122"></path><path d="M2179.8 1880L2543.7 1930L2252.8 1722Z" fill="#6839fb" stroke="#001122"></path><path d="M2616.6 1995L2543.7 1930L2429.7 2160Z" fill="#6f58f4" stroke="#001122"></path><path d="M1641.2 1873L1880.1 2032L1766.1 1647Z" fill="#6a47f9" stroke="#001122"></path><path d="M3156.4 922L2923.5 834L2845.5 1086Z" fill="#715df2" stroke="#001122"></path><path d="M2845.5 1086L2923.5 834L2747.6 1038Z" fill="#6d52f6" stroke="#001122"></path><path d="M2697.6 700L2854.5 556L2503.7 465Z" fill="#6619fe" stroke="#001122"></path><path d="M1273.3 881L1195.4 1026L1351.3 1107Z" fill="#6839fb" stroke="#001122"></path><path d="M2940.5 1991L2868.5 1630L2752.6 1704Z" fill="#6839fb" stroke="#001122"></path><path d="M2752.6 1704L2868.5 1630L2621.6 1497Z" fill="#6a47f9" stroke="#001122"></path><path d="M2958.5 1547L3011.5 1285L2747.6 1381Z" fill="#6f58f4" stroke="#001122"></path><path d="M3110.4 1530L2958.5 1547L3190.4 1729Z" fill="#6839fb" stroke="#001122"></path><path d="M2868.5 1630L2958.5 1547L2747.6 1381Z" fill="#6619fe" stroke="#001122"></path><path d="M1264.3 459L1265.3 652L1636.2 597Z" fill="#6c4df7" stroke="#001122"></path><path d="M1273.3 881L1087.4 822L1195.4 1026Z" fill="#715df2" stroke="#001122"></path><path d="M2923.5 834L2854.5 556L2697.6 700Z" fill="#715df2" stroke="#001122"></path><path d="M1756.1 367L1508.2 362L1636.2 597Z" fill="#715df2" stroke="#001122"></path><path d="M2289.8 170L1956.9 183L2169.8 392Z" fill="#6940fa" stroke="#001122"></path><path d="M2169.8 392L1956.9 183L2051.9 522Z" fill="#715df2" stroke="#001122"></path><path d="M1756.1 367L1641.2 216L1508.2 362Z" fill="#6730fc" stroke="#001122"></path><path d="M2289.8 170L2169.8 392L2503.7 465Z" fill="#6730fc" stroke="#001122"></path><path d="M2429.7 2160L2543.7 1930L2179.8 1880Z" fill="#715df2" stroke="#001122"></path><path d="M2543.7 1930L2616.6 1995L2752.6 1704Z" fill="#6a47f9" stroke="#001122"></path><path d="M1106.4 1342L1138.4 1442L1356.3 1280Z" fill="#6f58f4" stroke="#001122"></path><path d="M1300.3 1531L1304.3 1770L1499.2 1590Z" fill="#6a47f9" stroke="#001122"></path><path d="M1154.4 1785L1304.3 1770L1300.3 1531Z" fill="#6839fb" stroke="#001122"></path><path d="M1394.3 2160L1584.2 2160L1641.2 1873Z" fill="#6f58f4" stroke="#001122"></path><path d="M1584.2 2160L1896.1 2160L1880.1 2032Z" fill="#6d52f6" stroke="#001122"></path><path d="M1195.4 1026L1106.4 1342L1356.3 1280Z" fill="#6a47f9" stroke="#001122"></path><path d="M997.5 1295L1106.4 1342L1195.4 1026Z" fill="#6c4df7" stroke="#001122"></path><path d="M1896.1 2160L2017.9 2160L1950.9 2034Z" fill="#6940fa" stroke="#001122"></path><path d="M1950.9 2034L2017.9 2160L2179.8 1880Z" fill="#715df2" stroke="#001122"></path><path d="M1896.1 2160L1950.9 2034L1880.1 2032Z" fill="#6839fb" stroke="#001122"></path><path d="M2017.9 2160L2225.8 2160L2179.8 1880Z" fill="#6a47f9" stroke="#001122"></path><path d="M2547.7 135L2289.8 170L2503.7 465Z" fill="#6f58f4" stroke="#001122"></path><path d="M1584.2 2160L1880.1 2032L1641.2 1873Z" fill="#6940fa" stroke="#001122"></path><path d="M3135.4 589L2891.5 510L2854.5 556Z" fill="#6626fd" stroke="#001122"></path><path d="M2854.5 556L2721.6 333L2503.7 465Z" fill="#6600ff" stroke="#001122"></path><path d="M3135.4 589L2854.5 556L2923.5 834Z" fill="#6600ff" stroke="#001122"></path><path d="M2891.5 510L2721.6 333L2854.5 556Z" fill="#6600ff" stroke="#001122"></path><path d="M1771.1 117L1641.2 216L1756.1 367Z" fill="#6839fb" stroke="#001122"></path><path d="M1181.4 566L1087.4 822L1265.3 652Z" fill="#6940fa" stroke="#001122"></path><path d="M1265.3 652L1087.4 822L1273.3 881Z" fill="#6626fd" stroke="#001122"></path><path d="M1214.4 525L1265.3 652L1264.3 459Z" fill="#6839fb" stroke="#001122"></path><path d="M2225.8 2160L2429.7 2160L2179.8 1880Z" fill="#6619fe" stroke="#001122"></path><path d="M1264.3 459L1636.2 597L1508.2 362Z" fill="#6c4df7" stroke="#001122"></path><path d="M1263.3 200L1264.3 459L1508.2 362Z" fill="#6619fe" stroke="#001122"></path><path d="M988.5 744L1181.4 566L915.5 485Z" fill="#6839fb" stroke="#001122"></path><path d="M1214.4 525L1181.4 566L1265.3 652Z" fill="#6a47f9" stroke="#001122"></path><path d="M3007.5 162L2699.6 264L2721.6 333Z" fill="#6c4df7" stroke="#001122"></path><path d="M2721.6 333L2699.6 264L2503.7 465Z" fill="#6619fe" stroke="#001122"></path><path d="M3190.4 1729L2958.5 1547L2868.5 1630Z" fill="#6a47f9" stroke="#001122"></path><path d="M2958.5 1547L3110.4 1530L3011.5 1285Z" fill="#6940fa" stroke="#001122"></path><path d="M3011.5 1285L3176.4 1072L2845.5 1086Z" fill="#6a47f9" stroke="#001122"></path><path d="M1956.9 183L1771.1 117L1756.1 367Z" fill="#6730fc" stroke="#001122"></path><path d="M1408.3 0L1263.3 200L1508.2 362Z" fill="#6839fb" stroke="#001122"></path><path d="M2070.9 0L1771.1 117L1956.9 183Z" fill="#6730fc" stroke="#001122"></path><path d="M3221.4 1265L3176.4 1072L3011.5 1285Z" fill="#6730fc" stroke="#001122"></path><path d="M3176.4 1072L3156.4 922L2845.5 1086Z" fill="#6839fb" stroke="#001122"></path><path d="M835.5 1174L997.5 1295L1195.4 1026Z" fill="#6730fc" stroke="#001122"></path><path d="M1106.4 1342L997.5 1295L1138.4 1442Z" fill="#6d52f6" stroke="#001122"></path><path d="M1138.4 1442L1154.4 1785L1300.3 1531Z" fill="#6f58f4" stroke="#001122"></path><path d="M1273.3 2023L1641.2 1873L1485.2 1769Z" fill="#6c4df7" stroke="#001122"></path><path d="M917.5 1603L1154.4 1785L1138.4 1442Z" fill="#6619fe" stroke="#001122"></path><path d="M1304.3 1770L1273.3 2023L1485.2 1769Z" fill="#6c4df7" stroke="#001122"></path><path d="M2699.6 264L2547.7 135L2503.7 465Z" fill="#6619fe" stroke="#001122"></path><path d="M2289.8 170L2070.9 0L1956.9 183Z" fill="#6940fa" stroke="#001122"></path><path d="M3110.4 1530L3221.4 1265L3011.5 1285Z" fill="#715df2" stroke="#001122"></path><path d="M3298.2 582L3135.4 589L3156.4 922Z" fill="#715df2" stroke="#001122"></path><path d="M2334.8 0L2070.9 0L2289.8 170Z" fill="#6626fd" stroke="#001122"></path><path d="M915.5 485L1181.4 566L1214.4 525Z" fill="#6839fb" stroke="#001122"></path><path d="M1181.4 566L988.5 744L1087.4 822Z" fill="#715df2" stroke="#001122"></path><path d="M1087.4 822L934.5 844L1195.4 1026Z" fill="#6d52f6" stroke="#001122"></path><path d="M1154.4 1785L1273.3 2023L1304.3 1770Z" fill="#6f58f4" stroke="#001122"></path><path d="M2547.7 135L2334.8 0L2289.8 170Z" fill="#6619fe" stroke="#001122"></path><path d="M2746.6 2160L2940.5 1991L2616.6 1995Z" fill="#6d52f6" stroke="#001122"></path><path d="M2616.6 1995L2940.5 1991L2752.6 1704Z" fill="#6839fb" stroke="#001122"></path><path d="M3110.4 1530L3326.2 1498L3221.4 1265Z" fill="#715df2" stroke="#001122"></path><path d="M3231.4 498L3135.4 589L3298.2 582Z" fill="#6c4df7" stroke="#001122"></path><path d="M3156.4 922L3135.4 589L2923.5 834Z" fill="#6730fc" stroke="#001122"></path><path d="M2891.5 510L3007.5 162L2721.6 333Z" fill="#6c4df7" stroke="#001122"></path><path d="M2797.6 0L2563.7 0L2547.7 135Z" fill="#6730fc" stroke="#001122"></path><path d="M988.5 744L934.5 844L1087.4 822Z" fill="#6839fb" stroke="#001122"></path><path d="M2429.7 2160L2746.6 2160L2616.6 1995Z" fill="#6f58f4" stroke="#001122"></path><path d="M1273.3 2023L1394.3 2160L1641.2 1873Z" fill="#715df2" stroke="#001122"></path><path d="M2070.9 0L1710.1 0L1771.1 117Z" fill="#715df2" stroke="#001122"></path><path d="M1771.1 117L1710.1 0L1641.2 216Z" fill="#6730fc" stroke="#001122"></path><path d="M2940.5 1991L3190.4 1729L2868.5 1630Z" fill="#6619fe" stroke="#001122"></path><path d="M1154.4 1785L1084.4 1957L1273.3 2023Z" fill="#6940fa" stroke="#001122"></path><path d="M997.5 1295L917.5 1603L1138.4 1442Z" fill="#6d52f6" stroke="#001122"></path><path d="M758.6 1482L917.5 1603L997.5 1295Z" fill="#6a47f9" stroke="#001122"></path><path d="M934.5 844L835.5 1174L1195.4 1026Z" fill="#6600ff" stroke="#001122"></path><path d="M2797.6 0L2547.7 135L2699.6 264Z" fill="#6f58f4" stroke="#001122"></path><path d="M2547.7 135L2563.7 0L2334.8 0Z" fill="#6839fb" stroke="#001122"></path><path d="M1408.3 0L1508.2 362L1641.2 216Z" fill="#6d52f6" stroke="#001122"></path><path d="M1264.3 459L915.5 485L1214.4 525Z" fill="#715df2" stroke="#001122"></path><path d="M698.6 593L639.6 898L934.5 844Z" fill="#6626fd" stroke="#001122"></path><path d="M933.5 1785L1084.4 1957L1154.4 1785Z" fill="#6940fa" stroke="#001122"></path><path d="M1273.3 2023L1095.4 2160L1394.3 2160Z" fill="#6730fc" stroke="#001122"></path><path d="M3190.4 1729L3326.2 1498L3110.4 1530Z" fill="#6839fb" stroke="#001122"></path><path d="M3449.2 832L3156.4 922L3176.4 1072Z" fill="#6626fd" stroke="#001122"></path><path d="M1710.1 0L1506.2 0L1641.2 216Z" fill="#6626fd" stroke="#001122"></path><path d="M752.6 1708L933.5 1785L917.5 1603Z" fill="#6600ff" stroke="#001122"></path><path d="M917.5 1603L933.5 1785L1154.4 1785Z" fill="#6c4df7" stroke="#001122"></path><path d="M2995.5 2160L3130.4 1969L2940.5 1991Z" fill="#6d52f6" stroke="#001122"></path><path d="M2940.5 1991L3130.4 1969L3190.4 1729Z" fill="#6d52f6" stroke="#001122"></path><path d="M3190.4 1729L3375.2 1736L3326.2 1498Z" fill="#6c4df7" stroke="#001122"></path><path d="M3298.2 582L3156.4 922L3449.2 832Z" fill="#6a47f9" stroke="#001122"></path><path d="M3135.4 589L3231.4 498L2891.5 510Z" fill="#715df2" stroke="#001122"></path><path d="M3438.2 1131L3176.4 1072L3221.4 1265Z" fill="#6a47f9" stroke="#001122"></path><path d="M1506.2 0L1408.3 0L1641.2 216Z" fill="#6626fd" stroke="#001122"></path><path d="M2746.6 2160L2995.5 2160L2940.5 1991Z" fill="#6a47f9" stroke="#001122"></path><path d="M3486.2 1377L3438.2 1131L3221.4 1265Z" fill="#6f58f4" stroke="#001122"></path><path d="M1033.4 151L1264.3 459L1263.3 200Z" fill="#6f58f4" stroke="#001122"></path><path d="M1033.4 151L915.5 485L1264.3 459Z" fill="#6f58f4" stroke="#001122"></path><path d="M934.5 844L652.6 1018L835.5 1174Z" fill="#715df2" stroke="#001122"></path><path d="M3115.4 141L3007.5 162L3231.4 498Z" fill="#6f58f4" stroke="#001122"></path><path d="M3231.4 498L3007.5 162L2891.5 510Z" fill="#6839fb" stroke="#001122"></path><path d="M3007.5 162L2797.6 0L2699.6 264Z" fill="#6f58f4" stroke="#001122"></path><path d="M607.6 1377L758.6 1482L835.5 1174Z" fill="#715df2" stroke="#001122"></path><path d="M835.5 1174L758.6 1482L997.5 1295Z" fill="#6600ff" stroke="#001122"></path><path d="M3438.2 1131L3449.2 832L3176.4 1072Z" fill="#715df2" stroke="#001122"></path><path d="M882.5 2018L1084.4 1957L933.5 1785Z" fill="#6730fc" stroke="#001122"></path><path d="M950.5 2160L1095.4 2160L1084.4 1957Z" fill="#6d52f6" stroke="#001122"></path><path d="M1084.4 1957L1095.4 2160L1273.3 2023Z" fill="#6619fe" stroke="#001122"></path><path d="M3130.4 1969L3296.2 1885L3190.4 1729Z" fill="#6619fe" stroke="#001122"></path><path d="M3326.2 1498L3486.2 1377L3221.4 1265Z" fill="#6f58f4" stroke="#001122"></path><path d="M3298.2 2160L3296.2 1885L3130.4 1969Z" fill="#6600ff" stroke="#001122"></path><path d="M3296.2 1885L3375.2 1736L3190.4 1729Z" fill="#6c4df7" stroke="#001122"></path><path d="M3607.1 1473L3486.2 1377L3326.2 1498Z" fill="#6839fb" stroke="#001122"></path><path d="M3694.1 999L3648.1 865L3449.2 832Z" fill="#6600ff" stroke="#001122"></path><path d="M2995.5 2160L3095.4 2160L3130.4 1969Z" fill="#6c4df7" stroke="#001122"></path><path d="M639.6 898L652.6 1018L934.5 844Z" fill="#6600ff" stroke="#001122"></path><path d="M758.6 1482L752.6 1708L917.5 1603Z" fill="#715df2" stroke="#001122"></path><path d="M538.8 1497L752.6 1708L758.6 1482Z" fill="#6730fc" stroke="#001122"></path><path d="M3457.2 181L3115.4 141L3231.4 498Z" fill="#6626fd" stroke="#001122"></path><path d="M3007.5 162L2978.5 0L2797.6 0Z" fill="#715df2" stroke="#001122"></path><path d="M3410.2 511L3231.4 498L3298.2 582Z" fill="#6839fb" stroke="#001122"></path><path d="M1107.4 0L1033.4 151L1263.3 200Z" fill="#6839fb" stroke="#001122"></path><path d="M698.6 593L934.5 844L988.5 744Z" fill="#6f58f4" stroke="#001122"></path><path d="M3115.4 141L2978.5 0L3007.5 162Z" fill="#6619fe" stroke="#001122"></path><path d="M3607.1 1473L3549.1 1288L3486.2 1377Z" fill="#6d52f6" stroke="#001122"></path><path d="M3486.2 1377L3549.1 1288L3438.2 1131Z" fill="#6c4df7" stroke="#001122"></path><path d="M698.6 593L988.5 744L915.5 485Z" fill="#6f58f4" stroke="#001122"></path><path d="M3584.1 629L3298.2 582L3449.2 832Z" fill="#6619fe" stroke="#001122"></path><path d="M3584.1 629L3410.2 511L3298.2 582Z" fill="#6730fc" stroke="#001122"></path><path d="M743.6 1974L882.5 2018L933.5 1785Z" fill="#6626fd" stroke="#001122"></path><path d="M661.6 214L758.6 504L915.5 485Z" fill="#6a47f9" stroke="#001122"></path><path d="M538.8 1497L607.6 1377L388.8 1218Z" fill="#6839fb" stroke="#001122"></path><path d="M652.6 1018L607.6 1377L835.5 1174Z" fill="#6a47f9" stroke="#001122"></path><path d="M752.6 1708L743.6 1974L933.5 1785Z" fill="#6c4df7" stroke="#001122"></path><path d="M758.6 504L698.6 593L915.5 485Z" fill="#6730fc" stroke="#001122"></path><path d="M882.5 2018L950.5 2160L1084.4 1957Z" fill="#6f58f4" stroke="#001122"></path><path d="M1408.3 0L1107.4 0L1263.3 200Z" fill="#6600ff" stroke="#001122"></path><path d="M1033.4 151L936.5 124L915.5 485Z" fill="#6600ff" stroke="#001122"></path><path d="M950.5 0L936.5 124L1033.4 151Z" fill="#6940fa" stroke="#001122"></path><path d="M532.8 279L451.8 601L698.6 593Z" fill="#6d52f6" stroke="#001122"></path><path d="M3575.1 1759L3607.1 1473L3375.2 1736Z" fill="#6f58f4" stroke="#001122"></path><path d="M3375.2 1736L3607.1 1473L3326.2 1498Z" fill="#6839fb" stroke="#001122"></path><path d="M3648.1 865L3584.1 629L3449.2 832Z" fill="#6c4df7" stroke="#001122"></path><path d="M3575.1 1759L3375.2 1736L3563.1 1911Z" fill="#6600ff" stroke="#001122"></path><path d="M515.8 1938L743.6 1974L752.6 1708Z" fill="#6730fc" stroke="#001122"></path><path d="M882.5 2018L579.6 2160L950.5 2160Z" fill="#715df2" stroke="#001122"></path><path d="M3095.4 2160L3298.2 2160L3130.4 1969Z" fill="#6626fd" stroke="#001122"></path><path d="M388.8 1218L607.6 1377L652.6 1018Z" fill="#6a47f9" stroke="#001122"></path><path d="M607.6 1377L538.8 1497L758.6 1482Z" fill="#6730fc" stroke="#001122"></path><path d="M3449.2 832L3438.2 1131L3694.1 999Z" fill="#715df2" stroke="#001122"></path><path d="M3457.2 181L3242.4 0L3115.4 141Z" fill="#6a47f9" stroke="#001122"></path><path d="M3694.1 999L3438.2 1131L3549.1 1288Z" fill="#6c4df7" stroke="#001122"></path><path d="M3563.1 1911L3375.2 1736L3296.2 1885Z" fill="#6a47f9" stroke="#001122"></path><path d="M3840 1224L3549.1 1288L3607.1 1473Z" fill="#6730fc" stroke="#001122"></path><path d="M3840 1224L3694.1 999L3549.1 1288Z" fill="#6d52f6" stroke="#001122"></path><path d="M3618.1 398L3410.2 511L3584.1 629Z" fill="#6a47f9" stroke="#001122"></path><path d="M406.8 929L473.8 990L639.6 898Z" fill="#6839fb" stroke="#001122"></path><path d="M639.6 898L473.8 990L652.6 1018Z" fill="#6730fc" stroke="#001122"></path><path d="M406.8 929L639.6 898L451.8 601Z" fill="#6a47f9" stroke="#001122"></path><path d="M1107.4 0L950.5 0L1033.4 151Z" fill="#6619fe" stroke="#001122"></path><path d="M936.5 124L661.6 214L915.5 485Z" fill="#6d52f6" stroke="#001122"></path><path d="M3457.2 181L3231.4 498L3410.2 511Z" fill="#6730fc" stroke="#001122"></path><path d="M3115.4 141L3242.4 0L2978.5 0Z" fill="#715df2" stroke="#001122"></path><path d="M3298.2 2160L3563.1 1911L3296.2 1885Z" fill="#6619fe" stroke="#001122"></path><path d="M3840 1577L3840 1224L3607.1 1473Z" fill="#6c4df7" stroke="#001122"></path><path d="M3524.1 237L3457.2 181L3410.2 511Z" fill="#6a47f9" stroke="#001122"></path><path d="M3524.1 237L3410.2 511L3618.1 398Z" fill="#6940fa" stroke="#001122"></path><path d="M451.8 601L639.6 898L698.6 593Z" fill="#6839fb" stroke="#001122"></path><path d="M473.8 990L388.8 1218L652.6 1018Z" fill="#6600ff" stroke="#001122"></path><path d="M306.9 1000L388.8 1218L473.8 990Z" fill="#6940fa" stroke="#001122"></path><path d="M373.8 1698L515.8 1938L752.6 1708Z" fill="#6730fc" stroke="#001122"></path><path d="M3618.1 398L3584.1 629L3840 513Z" fill="#6600ff" stroke="#001122"></path><path d="M3457.2 181L3417.2 0L3242.4 0Z" fill="#6626fd" stroke="#001122"></path><path d="M720.6 0L661.6 214L936.5 124Z" fill="#6940fa" stroke="#001122"></path><path d="M3840 573L3584.1 629L3648.1 865Z" fill="#6619fe" stroke="#001122"></path><path d="M532.8 279L698.6 593L758.6 504Z" fill="#715df2" stroke="#001122"></path><path d="M373.8 1698L752.6 1708L538.8 1497Z" fill="#6600ff" stroke="#001122"></path><path d="M743.6 1974L579.6 2160L882.5 2018Z" fill="#6730fc" stroke="#001122"></path><path d="M3840 1577L3607.1 1473L3575.1 1759Z" fill="#6c4df7" stroke="#001122"></path><path d="M3694.1 999L3840 895L3648.1 865Z" fill="#6619fe" stroke="#001122"></path><path d="M3840 1224L3840 1011L3694.1 999Z" fill="#6730fc" stroke="#001122"></path><path d="M3602.1 0L3457.2 181L3524.1 237Z" fill="#6940fa" stroke="#001122"></path><path d="M3602.1 0L3417.2 0L3457.2 181Z" fill="#6f58f4" stroke="#001122"></path><path d="M3840 1011L3840 895L3694.1 999Z" fill="#6d52f6" stroke="#001122"></path><path d="M398.8 0L532.8 279L661.6 214Z" fill="#6d52f6" stroke="#001122"></path><path d="M661.6 214L532.8 279L758.6 504Z" fill="#6626fd" stroke="#001122"></path><path d="M307.9 699L406.8 929L451.8 601Z" fill="#6600ff" stroke="#001122"></path><path d="M307.9 699L306.9 1000L406.8 929Z" fill="#6a47f9" stroke="#001122"></path><path d="M406.8 929L306.9 1000L473.8 990Z" fill="#6c4df7" stroke="#001122"></path><path d="M227.9 1332L373.8 1698L538.8 1497Z" fill="#6600ff" stroke="#001122"></path><path d="M950.5 0L720.6 0L936.5 124Z" fill="#6730fc" stroke="#001122"></path><path d="M227.9 1332L538.8 1497L388.8 1218Z" fill="#6d52f6" stroke="#001122"></path><path d="M3840 1719L3840 1577L3575.1 1759Z" fill="#6839fb" stroke="#001122"></path><path d="M458.8 2160L579.6 2160L515.8 1938Z" fill="#715df2" stroke="#001122"></path><path d="M515.8 1938L579.6 2160L743.6 1974Z" fill="#6626fd" stroke="#001122"></path><path d="M3298.2 2160L3625.1 2160L3563.1 1911Z" fill="#6839fb" stroke="#001122"></path><path d="M3840 1921L3840 1719L3575.1 1759Z" fill="#6940fa" stroke="#001122"></path><path d="M352.8 495L307.9 699L451.8 601Z" fill="#6940fa" stroke="#001122"></path><path d="M3840 1921L3575.1 1759L3563.1 1911Z" fill="#6c4df7" stroke="#001122"></path><path d="M3840 895L3840 573L3648.1 865Z" fill="#6839fb" stroke="#001122"></path><path d="M3840 138L3602.1 0L3524.1 237Z" fill="#6619fe" stroke="#001122"></path><path d="M175.9 448L352.8 495L233.9 296Z" fill="#6a47f9" stroke="#001122"></path><path d="M532.8 279L352.8 495L451.8 601Z" fill="#6c4df7" stroke="#001122"></path><path d="M306.9 1000L227.9 1332L388.8 1218Z" fill="#6730fc" stroke="#001122"></path><path d="M0 1165L227.9 1332L306.9 1000Z" fill="#6626fd" stroke="#001122"></path><path d="M3840 573L3840 513L3584.1 629Z" fill="#6730fc" stroke="#001122"></path><path d="M3840 138L3524.1 237L3618.1 398Z" fill="#6a47f9" stroke="#001122"></path><path d="M213.9 1871L458.8 2160L515.8 1938Z" fill="#6600ff" stroke="#001122"></path><path d="M213.9 1871L515.8 1938L373.8 1698Z" fill="#6730fc" stroke="#001122"></path><path d="M3625.1 2160L3840 1921L3563.1 1911Z" fill="#6f58f4" stroke="#001122"></path><path d="M0 681L127.9 803L307.9 699Z" fill="#6a47f9" stroke="#001122"></path><path d="M307.9 699L127.9 803L306.9 1000Z" fill="#6a47f9" stroke="#001122"></path><path d="M0 1540L125.9 1567L227.9 1332Z" fill="#6d52f6" stroke="#001122"></path><path d="M227.9 1332L125.9 1567L373.8 1698Z" fill="#6a47f9" stroke="#001122"></path><path d="M145.9 1755L213.9 1871L373.8 1698Z" fill="#715df2" stroke="#001122"></path><path d="M3625.1 2160L3840 2160L3840 1921Z" fill="#6600ff" stroke="#001122"></path><path d="M125.9 1567L145.9 1755L373.8 1698Z" fill="#6619fe" stroke="#001122"></path><path d="M3840 513L3840 138L3618.1 398Z" fill="#6626fd" stroke="#001122"></path><path d="M233.9 296L352.8 495L532.8 279Z" fill="#6600ff" stroke="#001122"></path><path d="M352.8 495L175.9 448L307.9 699Z" fill="#6d52f6" stroke="#001122"></path><path d="M398.8 0L233.9 296L532.8 279Z" fill="#6839fb" stroke="#001122"></path><path d="M720.6 0L398.8 0L661.6 214Z" fill="#6626fd" stroke="#001122"></path><path d="M0 836L0 1165L306.9 1000Z" fill="#6626fd" stroke="#001122"></path><path d="M125.9 1567L0 1771L145.9 1755Z" fill="#6839fb" stroke="#001122"></path><path d="M0 836L306.9 1000L127.9 803Z" fill="#6600ff" stroke="#001122"></path><path d="M0 1165L0 1259L227.9 1332Z" fill="#6626fd" stroke="#001122"></path><path d="M3840 138L3840 0L3602.1 0Z" fill="#6626fd" stroke="#001122"></path><path d="M0 681L307.9 699L175.9 448Z" fill="#6839fb" stroke="#001122"></path><path d="M0 681L0 836L127.9 803Z" fill="#715df2" stroke="#001122"></path><path d="M0 1259L0 1540L227.9 1332Z" fill="#6940fa" stroke="#001122"></path><path d="M0 1911L162.9 2160L213.9 1871Z" fill="#6940fa" stroke="#001122"></path><path d="M0 366L0 681L175.9 448Z" fill="#715df2" stroke="#001122"></path><path d="M0 366L175.9 448L233.9 296Z" fill="#6c4df7" stroke="#001122"></path><path d="M0 1911L213.9 1871L145.9 1755Z" fill="#6c4df7" stroke="#001122"></path><path d="M213.9 1871L162.9 2160L458.8 2160Z" fill="#6f58f4" stroke="#001122"></path><path d="M0 1540L0 1771L125.9 1567Z" fill="#6730fc" stroke="#001122"></path><path d="M398.8 0L224.9 0L233.9 296Z" fill="#6730fc" stroke="#001122"></path><path d="M0 1771L0 1911L145.9 1755Z" fill="#6f58f4" stroke="#001122"></path><path d="M0 237L0 366L233.9 296Z" fill="#6d52f6" stroke="#001122"></path><path d="M224.9 0L0 237L233.9 296Z" fill="#715df2" stroke="#001122"></path><path d="M0 1911L0 2160L162.9 2160Z" fill="#715df2" stroke="#001122"></path><path d="M224.9 0L0 0L0 237Z" fill="#6600ff" stroke="#001122"></path></g></svg>