<svg width="876" height="602" viewBox="0 0 876 602" fill="none" xmlns="http://www.w3.org/2000/svg">
<path d="M1 396.574C27.4843 416.079 53.9702 435.584 80.4545 423.512C106.939 411.438 133.425 367.788 159.909 372.33C186.393 376.872 212.879 429.607 239.364 428.899C265.848 428.191 292.334 374.041 318.818 375.024C345.303 376.006 371.788 432.122 398.273 447.756C424.757 463.389 451.243 438.539 477.727 428.899C504.212 419.259 530.697 424.827 557.182 426.205C583.666 427.582 610.152 424.769 636.636 412.736C663.121 400.704 689.607 379.451 716.091 375.024C742.575 370.596 769.061 382.994 795.545 388.493C822.03 393.991 848.516 392.588 875 391.187V601.301C848.516 601.301 822.03 601.301 795.545 601.301C769.061 601.301 742.575 601.301 716.091 601.301C689.607 601.301 663.121 601.301 636.636 601.301C610.152 601.301 583.666 601.301 557.182 601.301C530.697 601.301 504.212 601.301 477.727 601.301C451.243 601.301 424.757 601.301 398.273 601.301C371.788 601.301 345.303 601.301 318.818 601.301C292.334 601.301 265.848 601.301 239.364 601.301C212.879 601.301 186.393 601.301 159.909 601.301C133.425 601.301 106.939 601.301 80.4545 601.301C53.9702 601.301 27.4843 601.301 1 601.301V396.574Z" fill="#5D2994"/>
<path d="M1 396.574C27.4843 416.079 53.9702 435.584 80.4545 423.512C106.939 411.438 133.425 367.788 159.909 372.33C186.393 376.872 212.879 429.607 239.364 428.899C265.848 428.191 292.334 374.041 318.818 375.024C345.303 376.006 371.788 432.122 398.273 447.756C424.757 463.389 451.243 438.539 477.727 428.899C504.212 419.259 530.697 424.827 557.182 426.205C583.666 427.582 610.152 424.769 636.636 412.736C663.121 400.704 689.607 379.451 716.091 375.024C742.575 370.596 769.061 382.994 795.545 388.493C822.03 393.991 848.516 392.588 875 391.187" stroke="#783CC8" stroke-width="2"/>
<path d="M1 434.286C27.4843 433.924 53.9702 433.563 80.4545 428.899C106.939 424.235 133.425 415.271 159.909 426.205C186.393 437.14 212.879 467.973 239.364 472C265.848 476.026 292.334 453.246 318.818 442.367C345.303 431.49 371.788 432.516 398.273 439.675C424.757 446.833 451.243 460.125 477.727 463.918C504.212 467.71 530.697 462.003 557.182 455.837C583.666 449.672 610.152 443.048 636.636 431.593C663.121 420.138 689.607 403.85 716.091 404.655C742.575 405.46 769.061 423.357 795.545 434.286C822.03 445.217 848.516 449.18 875 453.143V601.301C848.516 601.301 822.03 601.301 795.545 601.301C769.061 601.301 742.575 601.301 716.091 601.301C689.607 601.301 663.121 601.301 636.636 601.301C610.152 601.301 583.666 601.301 557.182 601.301C530.697 601.301 504.212 601.301 477.727 601.301C451.243 601.301 424.757 601.301 398.273 601.301C371.788 601.301 345.303 601.301 318.818 601.301C292.334 601.301 265.848 601.301 239.364 601.301C212.879 601.301 186.393 601.301 159.909 601.301C133.425 601.301 106.939 601.301 80.4545 601.301C53.9702 601.301 27.4843 601.301 1 601.301V434.286Z" fill="#5D2994"/>
<path d="M1 434.286C27.4843 433.924 53.9702 433.563 80.4545 428.899C106.939 424.235 133.425 415.271 159.909 426.205C186.393 437.14 212.879 467.973 239.364 472C265.848 476.026 292.334 453.246 318.818 442.367C345.303 431.49 371.788 432.516 398.273 439.675C424.757 446.833 451.243 460.125 477.727 463.918C504.212 467.71 530.697 462.003 557.182 455.837C583.666 449.672 610.152 443.048 636.636 431.593C663.121 420.138 689.607 403.85 716.091 404.655C742.575 405.46 769.061 423.357 795.545 434.286C822.03 445.217 848.516 449.18 875 453.143" stroke="#783CC8" stroke-width="2"/>
<path d="M1 490.855C27.4843 481.194 53.9702 471.534 80.4545 477.387C106.939 483.24 133.425 504.608 159.909 490.855C186.393 477.104 212.879 428.234 239.364 431.593C265.848 434.953 292.334 490.542 318.818 501.631C345.303 512.72 371.788 479.307 398.273 466.611C424.757 453.916 451.243 461.938 477.727 458.53C504.212 455.124 530.697 440.286 557.182 447.756C583.666 455.224 610.152 484.999 636.636 485.468C663.121 485.937 689.607 457.103 716.091 450.449C742.575 443.796 769.061 459.323 795.545 461.224C822.03 463.126 848.516 451.4 875 439.675V601.301C848.516 601.301 822.03 601.301 795.545 601.301C769.061 601.301 742.575 601.301 716.091 601.301C689.607 601.301 663.121 601.301 636.636 601.301C610.152 601.301 583.666 601.301 557.182 601.301C530.697 601.301 504.212 601.301 477.727 601.301C451.243 601.301 424.757 601.301 398.273 601.301C371.788 601.301 345.303 601.301 318.818 601.301C292.334 601.301 265.848 601.301 239.364 601.301C212.879 601.301 186.393 601.301 159.909 601.301C133.425 601.301 106.939 601.301 80.4545 601.301C53.9702 601.301 27.4843 601.301 1 601.301V490.855Z" fill="#5D2994"/>
<path d="M1 490.855C27.4843 481.194 53.9702 471.534 80.4545 477.387C106.939 483.24 133.425 504.608 159.909 490.855C186.393 477.104 212.879 428.234 239.364 431.593C265.848 434.953 292.334 490.542 318.818 501.631C345.303 512.72 371.788 479.307 398.273 466.611C424.757 453.916 451.243 461.938 477.727 458.53C504.212 455.124 530.697 440.286 557.182 447.756C583.666 455.224 610.152 484.999 636.636 485.468C663.121 485.937 689.607 457.103 716.091 450.449C742.575 443.796 769.061 459.323 795.545 461.224C822.03 463.126 848.516 451.4 875 439.675" stroke="#783CC8" stroke-width="2"/>
<path d="M1 525.875C27.4843 501.826 53.9702 477.775 80.4545 477.387C106.939 476.998 133.425 500.27 159.909 504.325C186.393 508.38 212.879 493.217 239.364 498.936C265.848 504.657 292.334 531.26 318.818 523.18C345.303 515.102 371.788 472.342 398.273 466.611C424.757 460.882 451.243 492.182 477.727 509.712C504.212 527.242 530.697 531.003 557.182 531.262C583.666 531.52 610.152 528.276 636.636 525.875C663.121 523.473 689.607 521.913 716.091 515.099C742.575 508.287 769.061 496.221 795.545 493.549C822.03 490.878 848.516 497.601 875 504.325V601.301C848.516 601.301 822.03 601.301 795.545 601.301C769.061 601.301 742.575 601.301 716.091 601.301C689.607 601.301 663.121 601.301 636.636 601.301C610.152 601.301 583.666 601.301 557.182 601.301C530.697 601.301 504.212 601.301 477.727 601.301C451.243 601.301 424.757 601.301 398.273 601.301C371.788 601.301 345.303 601.301 318.818 601.301C292.334 601.301 265.848 601.301 239.364 601.301C212.879 601.301 186.393 601.301 159.909 601.301C133.425 601.301 106.939 601.301 80.4545 601.301C53.9702 601.301 27.4843 601.301 1 601.301V525.875Z" fill="#5D2994"/>
<path d="M1 525.875C27.4843 501.826 53.9702 477.775 80.4545 477.387C106.939 476.998 133.425 500.27 159.909 504.325C186.393 508.38 212.879 493.217 239.364 498.936C265.848 504.657 292.334 531.26 318.818 523.18C345.303 515.102 371.788 472.342 398.273 466.611C424.757 460.882 451.243 492.182 477.727 509.712C504.212 527.242 530.697 531.003 557.182 531.262C583.666 531.52 610.152 528.276 636.636 525.875C663.121 523.473 689.607 521.913 716.091 515.099C742.575 508.287 769.061 496.221 795.545 493.549C822.03 490.878 848.516 497.601 875 504.325" stroke="#783CC8" stroke-width="2"/>
<path d="M1 251.405C27.4843 244.017 53.9702 236.628 80.4545 224.942C106.939 213.253 133.425 197.268 159.909 208.401C186.393 219.535 212.879 257.791 239.364 267.944C265.848 278.098 292.334 260.15 318.818 254.713C345.303 249.274 371.788 256.344 398.273 258.02C424.757 259.698 451.243 255.981 477.727 244.789C504.212 233.595 530.697 214.924 557.182 208.401C583.666 201.879 610.152 207.505 636.636 205.094C663.121 202.681 689.607 192.229 716.091 198.477C742.575 204.724 769.061 227.671 795.545 238.172C822.03 248.674 848.516 246.732 875 244.789V0C848.516 0 822.03 0 795.545 0C769.061 0 742.575 0 716.091 0C689.607 0 663.121 0 636.636 0C610.152 0 583.666 0 557.182 0C530.697 0 504.212 0 477.727 0C451.243 0 424.757 0 398.273 0C371.788 0 345.303 0 318.818 0C292.334 0 265.848 0 239.364 0C212.879 0 186.393 0 159.909 0C133.425 0 106.939 0 80.4545 0C53.9702 0 27.4843 0 1 0V251.405Z" fill="#5D2994"/>
<path d="M1 251.405C27.4843 244.017 53.9702 236.628 80.4545 224.942C106.939 213.253 133.425 197.268 159.909 208.401C186.393 219.535 212.879 257.791 239.364 267.944C265.848 278.098 292.334 260.15 318.818 254.713C345.303 249.274 371.788 256.344 398.273 258.02C424.757 259.698 451.243 255.981 477.727 244.789C504.212 233.595 530.697 214.924 557.182 208.401C583.666 201.879 610.152 207.505 636.636 205.094C663.121 202.681 689.607 192.229 716.091 198.477C742.575 204.724 769.061 227.671 795.545 238.172C822.03 248.674 848.516 246.732 875 244.789" stroke="#783CC8" stroke-width="2"/>
<path d="M1 228.248C27.4843 212.042 53.9702 195.838 80.4545 198.477C106.939 201.117 133.425 222.603 159.909 215.018C186.393 207.431 212.879 170.773 239.364 168.705C265.848 166.639 292.334 199.162 318.818 208.401C345.303 217.639 371.788 203.593 398.273 205.094C424.757 206.593 451.243 223.642 477.727 218.324C504.212 213.009 530.697 185.329 557.182 191.861C583.666 198.394 610.152 239.14 636.636 238.172C663.121 237.206 689.607 194.528 716.091 172.014C742.575 149.5 769.061 147.152 795.545 162.09C822.03 177.028 848.516 209.254 875 241.481V0C848.516 0 822.03 0 795.545 0C769.061 0 742.575 0 716.091 0C689.607 0 663.121 0 636.636 0C610.152 0 583.666 0 557.182 0C530.697 0 504.212 0 477.727 0C451.243 0 424.757 0 398.273 0C371.788 0 345.303 0 318.818 0C292.334 0 265.848 0 239.364 0C212.879 0 186.393 0 159.909 0C133.425 0 106.939 0 80.4545 0C53.9702 0 27.4843 0 1 0V228.248Z" fill="#5D2994"/>
<path d="M1 228.248C27.4843 212.042 53.9702 195.838 80.4545 198.477C106.939 201.117 133.425 222.603 159.909 215.018C186.393 207.431 212.879 170.773 239.364 168.705C265.848 166.639 292.334 199.162 318.818 208.401C345.303 217.639 371.788 203.593 398.273 205.094C424.757 206.593 451.243 223.642 477.727 218.324C504.212 213.009 530.697 185.329 557.182 191.861C583.666 198.394 610.152 239.14 636.636 238.172C663.121 237.206 689.607 194.528 716.091 172.014C742.575 149.5 769.061 147.152 795.545 162.09C822.03 177.028 848.516 209.254 875 241.481" stroke="#783CC8" stroke-width="2"/>
<path d="M1 178.629C27.4843 188.916 53.9702 199.204 80.4545 188.553C106.939 177.904 133.425 146.318 159.909 135.627C186.393 124.935 212.879 135.138 239.364 142.242C265.848 149.347 292.334 153.356 318.818 158.781C345.303 164.208 371.788 171.053 398.273 162.09C424.757 153.127 451.243 128.359 477.727 125.703C504.212 123.045 530.697 142.499 557.182 152.166C583.666 161.833 610.152 161.713 636.636 175.322C663.121 188.929 689.607 216.263 716.091 205.094C742.575 193.923 769.061 144.25 795.545 135.627C822.03 127.004 848.516 159.432 875 191.861V1.52588e-05C848.516 1.52588e-05 822.03 1.52588e-05 795.545 1.52588e-05C769.061 1.52588e-05 742.575 1.52588e-05 716.091 1.52588e-05C689.607 1.52588e-05 663.121 1.52588e-05 636.636 1.52588e-05C610.152 1.52588e-05 583.666 1.52588e-05 557.182 1.52588e-05C530.697 1.52588e-05 504.212 1.52588e-05 477.727 1.52588e-05C451.243 1.52588e-05 424.757 1.52588e-05 398.273 1.52588e-05C371.788 1.52588e-05 345.303 1.52588e-05 318.818 1.52588e-05C292.334 1.52588e-05 265.848 1.52588e-05 239.364 1.52588e-05C212.879 1.52588e-05 186.393 1.52588e-05 159.909 1.52588e-05C133.425 1.52588e-05 106.939 1.52588e-05 80.4545 1.52588e-05C53.9702 1.52588e-05 27.4843 1.52588e-05 1 1.52588e-05V178.629Z" fill="#5D2994"/>
<path d="M1 178.629C27.4843 188.916 53.9702 199.204 80.4545 188.553C106.939 177.904 133.425 146.318 159.909 135.627C186.393 124.935 212.879 135.138 239.364 142.242C265.848 149.347 292.334 153.356 318.818 158.781C345.303 164.208 371.788 171.053 398.273 162.09C424.757 153.127 451.243 128.359 477.727 125.703C504.212 123.045 530.697 142.499 557.182 152.166C583.666 161.833 610.152 161.713 636.636 175.322C663.121 188.929 689.607 216.263 716.091 205.094C742.575 193.923 769.061 144.25 795.545 135.627C822.03 127.004 848.516 159.432 875 191.861" stroke="#783CC8" stroke-width="2"/>
<path d="M1 119.086C27.4843 121.48 53.9702 123.875 80.4545 122.395C106.939 120.915 133.425 115.562 159.909 112.471C186.393 109.379 212.879 108.552 239.364 115.779C265.848 123.007 292.334 138.29 318.818 145.551C345.303 152.81 371.788 152.046 398.273 142.242C424.757 132.438 451.243 113.595 477.727 125.703C504.212 137.81 530.697 180.869 557.182 175.322C583.666 169.774 610.152 115.621 636.636 95.9316C663.121 76.2401 689.607 91.0113 716.091 115.779C742.575 140.546 769.061 175.31 795.545 175.322C822.03 175.334 848.516 140.594 875 105.855V7.62939e-06C848.516 7.62939e-06 822.03 7.62939e-06 795.545 7.62939e-06C769.061 7.62939e-06 742.575 7.62939e-06 716.091 7.62939e-06C689.607 7.62939e-06 663.121 7.62939e-06 636.636 7.62939e-06C610.152 7.62939e-06 583.666 7.62939e-06 557.182 7.62939e-06C530.697 7.62939e-06 504.212 7.62939e-06 477.727 7.62939e-06C451.243 7.62939e-06 424.757 7.62939e-06 398.273 7.62939e-06C371.788 7.62939e-06 345.303 7.62939e-06 318.818 7.62939e-06C292.334 7.62939e-06 265.848 7.62939e-06 239.364 7.62939e-06C212.879 7.62939e-06 186.393 7.62939e-06 159.909 7.62939e-06C133.425 7.62939e-06 106.939 7.62939e-06 80.4545 7.62939e-06C53.9702 7.62939e-06 27.4843 7.62939e-06 1 7.62939e-06V119.086Z" fill="#5D2994"/>
<path d="M1 119.086C27.4843 121.48 53.9702 123.875 80.4545 122.395C106.939 120.915 133.425 115.562 159.909 112.471C186.393 109.379 212.879 108.552 239.364 115.779C265.848 123.007 292.334 138.29 318.818 145.551C345.303 152.81 371.788 152.046 398.273 142.242C424.757 132.438 451.243 113.595 477.727 125.703C504.212 137.81 530.697 180.869 557.182 175.322C583.666 169.774 610.152 115.621 636.636 95.9316C663.121 76.2401 689.607 91.0113 716.091 115.779C742.575 140.546 769.061 175.31 795.545 175.322C822.03 175.334 848.516 140.594 875 105.855" stroke="#783CC8" stroke-width="2"/>
</svg>
